<?xml version="1.0" encoding="UTF-8"?>
<svg width="20px" height="20px" viewBox="0 0 20 20" version="1.1" xmlns="http://www.w3.org/2000/svg" xmlns:xlink="http://www.w3.org/1999/xlink">
    <!-- Generator: Sketch 55.2 (78181) - https://sketchapp.com -->
    <title>BIM数据服务</title>
    <desc>Created with Sketch.</desc>
    <g id="组件" stroke="none" stroke-width="1" fill-rule="evenodd">
        <g id="形状-4" transform="translate(1.000000, 6.000000)" fill-rule="nonzero">
            <path d="M0,2.84217094e-14 L3.63333333,2.84217094e-14 C4.42222222,2.84217094e-14 5.04444444,0.190476192 5.48888889,0.571428567 C5.9,0.929971983 6.11111111,1.4117647 6.11111111,2.01680672 C6.11111111,2.46498599 6,2.84593837 5.78888888,3.15966386 C5.57777778,3.45098038 5.27777777,3.66386554 4.87777778,3.82072829 C5.39999999,3.92156863 5.78888888,4.13445378 6.05555555,4.45938375 C6.31111111,4.77310924 6.44444444,5.21008403 6.44444444,5.74789916 C6.44444444,6.55462185 6.16666666,7.14845938 5.62222222,7.52941176 C5.15555555,7.84313725 4.48888889,8 3.64444444,8 L0,8 L0,2.84217094e-14 Z M1.3,1.07563025 L1.3,3.36134453 L3.28888889,3.36134453 C3.84444444,3.36134453 4.23333333,3.26050419 4.46666666,3.08123249 C4.68888889,2.8907563 4.81111111,2.58823529 4.81111111,2.17366946 C4.81111111,1.79271708 4.68888889,1.51260504 4.46666666,1.34453781 C4.22222222,1.1652661 3.84444444,1.07563025 3.31111111,1.07563025 L1.3,1.07563025 Z M1.3,4.43697479 L1.3,6.92436974 L3.45555555,6.92436974 C3.94444444,6.92436974 4.33333333,6.84593837 4.61111111,6.68907563 C4.96666666,6.48739495 5.14444444,6.17366946 5.14444444,5.7254902 C5.14444444,5.26610644 5.01111111,4.94117647 4.75555555,4.7394958 C4.48888889,4.53781513 4.06666666,4.43697479 3.48888888,4.43697479 L1.3,4.43697479 Z M7.66666667,2.84217094e-14 L8.96666666,2.84217094e-14 L8.96666666,8 L7.66666667,8 L7.66666667,2.84217094e-14 Z M10.5222222,2.84217094e-14 L12.0444444,2.84217094e-14 L14.7444444,6.2745098 L14.7888889,6.2745098 L17.4777778,2.84217094e-14 L19,2.84217094e-14 L19,8 L17.7,8 L17.7,2.48739495 L17.6555556,2.48739495 L15.3222222,8 L14.2,8 L11.8666667,2.48739495 L11.8222222,2.48739495 L11.8222222,8 L10.5222222,8 L10.5222222,2.84217094e-14 Z" id="形状"></path>
        </g>
    </g>
</svg>