<?xml version="1.0" encoding="UTF-8"?>
<svg width="20px" height="20px" viewBox="0 0 20 20" version="1.1" xmlns="http://www.w3.org/2000/svg" xmlns:xlink="http://www.w3.org/1999/xlink">
    <!-- Generator: Sketch 55.2 (78181) - https://sketchapp.com -->
    <title>建筑设计</title>
    <desc>Created with Sketch.</desc>
    <g id="组件" stroke="none" stroke-width="1" fill-rule="evenodd">
        <g id="形状-2" transform="translate(2.000000, 0.000000)" fill-rule="nonzero">
            <path d="M14.6874717,19.8978775 L1.89597466,19.8978775 C1.39321411,19.8981166 0.9109632,19.698564 0.555372953,19.3431434 C0.199782706,18.9877228 -4.35207426e-13,18.5055671 -4.35207426e-13,18.0028065 L-4.35207426e-13,8.95712583 C0.000998513443,7.1262288 1.4852493,5.64238288 3.31614653,5.64188386 L7.04477612,5.64188386 C8.87637966,5.64188386 10.3613277,7.12642693 10.3618272,8.95803041 L10.3618272,10.3935799 L13.2663953,10.3935799 C15.098352,10.3935799 16.5834464,11.8786743 16.5834464,13.710631 L16.5834464,18.0037111 C16.5832067,18.5064718 16.3831938,18.9885322 16.0274339,19.3437832 C15.671674,19.6990341 15.1893277,19.8983566 14.6865672,19.8978775 L14.6874717,19.8978775 Z M9.47625507,8.8956152 C9.47575562,7.58707111 8.41483094,6.52655144 7.10628675,6.52655144 L3.2546359,6.52655144 C1.94573853,6.52655144 0.884667561,7.58762241 0.884667561,8.89651978 L0.884667561,18.0597943 C0.884667561,18.5826347 1.30981456,19.0068771 1.83265491,19.0068771 L9.47625507,19.0068771 L9.47625507,8.8956152 Z M15.6924468,13.6482158 C15.6924468,12.3393185 14.6313759,11.2782475 13.3224785,11.2782475 L10.3627318,11.2782475 L10.3627318,19.006884 L14.7453641,19.006884 C14.9969236,19.007842 15.2384716,18.9083992 15.4164372,18.7306034 C15.5944029,18.5528075 15.6940762,18.3113547 15.6933554,18.0597943 L15.6933554,13.6473113 L15.6924468,13.6482158 Z M13.0149254,17.2303117 C12.7752847,17.2303117 12.5592406,17.0859494 12.467534,16.8645502 C12.3758275,16.6431511 12.4265186,16.3883097 12.5959702,16.2188581 C12.7654217,16.0494066 13.0202631,15.9987155 13.2416623,16.090422 C13.4630614,16.1821285 13.6074237,16.3981726 13.6074237,16.6378133 C13.6081432,16.7951733 13.5459532,16.9462981 13.4346816,17.0575696 C13.3234101,17.1688411 13.1722854,17.2310311 13.0149254,17.2303117 L13.0149254,17.2303117 Z M13.0149254,14.5527839 C12.7752024,14.5527839 12.5591013,14.4083295 12.467448,14.1868193 C12.3757948,13.9653091 12.4266519,13.7103969 12.596291,13.5410167 C12.7659302,13.3716365 13.0209198,13.3211689 13.2422897,13.4131605 C13.4636597,13.5051522 13.6077834,13.7214737 13.6074181,13.9611964 C13.6069184,14.2880674 13.3417968,14.5527839 13.0149254,14.5527839 Z M3.25011307,8.31759621 C3.49015683,8.31576377 3.70758518,8.45895221 3.80071846,8.68019994 C3.89385174,8.90144767 3.84428311,9.15702734 3.67519318,9.32741796 C3.50610325,9.49780858 3.25091092,9.54933418 3.02895603,9.457899 C2.80700114,9.36646381 2.66215081,9.15013906 2.66214381,8.9100883 C2.66093822,8.75336699 2.72235218,8.60265016 2.83274874,8.49140439 C2.94314531,8.38015862 3.09338712,8.31759157 3.25011307,8.31759621 L3.25011307,8.31759621 Z M3.25011307,10.6875646 C3.49023912,10.6857317 3.70772515,10.829018 3.80080568,11.0503772 C3.89388622,11.2717364 3.84415162,11.5273877 3.67487357,11.6977075 C3.50559552,11.8680272 3.25025413,11.9193293 3.02832806,11.8276085 C2.806402,11.7358877 2.66178419,11.5192848 2.66214381,11.2791521 C2.66093822,11.1224308 2.72235218,10.9717139 2.83274874,10.8604682 C2.94314531,10.7492224 3.09338712,10.68666 3.25011307,10.68666 L3.25011307,10.6875646 Z M3.25011307,13.3687043 C3.49015683,13.3668719 3.70758518,13.5100603 3.80071846,13.731308 C3.89385174,13.9525558 3.84428311,14.2081354 3.67519318,14.3785261 C3.50610325,14.5489167 3.25091092,14.6004423 3.02895603,14.5090071 C2.80700114,14.4175719 2.66215081,14.2012472 2.66214381,13.9611964 C2.66093822,13.8044751 2.72235218,13.6537583 2.83274874,13.5425125 C2.94314531,13.4312667 3.09338712,13.3686997 3.25011307,13.3687043 L3.25011307,13.3687043 Z M3.25011307,16.0462258 C3.49023912,16.044393 3.70772515,16.1876792 3.80080568,16.4090384 C3.89388622,16.6303976 3.84415162,16.886049 3.67487357,17.0563687 C3.50559552,17.2266885 3.25025413,17.2779905 3.02832806,17.1862697 C2.806402,17.094549 2.66178419,16.8779461 2.66214381,16.6378133 C2.66093822,16.481092 2.72235218,16.3303752 2.83274874,16.2191294 C2.94314531,16.1078836 3.09338712,16.0453212 3.25011307,16.0453212 L3.25011307,16.0462258 Z M7.11533242,8.31669163 C7.35537619,8.31485918 7.57280454,8.45804762 7.66593782,8.67929535 C7.75907111,8.90054308 7.70950249,9.15612275 7.54041256,9.32651338 C7.37132263,9.496904 7.1161303,9.54842961 6.8941754,9.45699442 C6.67222051,9.36555923 6.52737018,9.14923448 6.52736318,8.90918372 C6.5261576,8.75246242 6.58757155,8.60174559 6.69796811,8.49049982 C6.80836467,8.37925405 6.95860648,8.316687 7.11533242,8.31669163 L7.11533242,8.31669163 Z M7.11533242,10.68666 C7.35545847,10.6848272 7.57294451,10.8281134 7.66602505,11.0494726 C7.75910559,11.2708318 7.709371,11.5264831 7.54009295,11.6968029 C7.37081491,11.8671226 7.11547352,11.9184247 6.89354745,11.8267039 C6.67162138,11.7349832 6.52700357,11.5183803 6.52736318,11.2782475 C6.5261576,11.1215262 6.58757155,10.9708094 6.69796811,10.8595636 C6.80836467,10.7483178 6.95860648,10.6857554 7.11533242,10.6857554 L7.11533242,10.68666 Z M7.11533242,13.3677997 C7.35537619,13.3659673 7.57280454,13.5091557 7.66593782,13.7304035 C7.75907111,13.9516512 7.70950248,14.2072309 7.54041255,14.3776215 C7.37132262,14.5480121 7.11613028,14.5995377 6.89417539,14.5081025 C6.6722205,14.4166673 6.52737017,14.2003426 6.52736318,13.9602918 C6.5261576,13.8035705 6.58757156,13.6528537 6.69796812,13.5416079 C6.80836468,13.4303622 6.95860648,13.3677951 7.11533242,13.3677997 L7.11533242,13.3677997 Z M7.11533242,16.0453212 C7.35545847,16.0434884 7.57294451,16.1867747 7.66602505,16.4081338 C7.75910559,16.629493 7.709371,16.8851444 7.54009295,17.0554641 C7.3708149,17.2257839 7.11547351,17.2770859 6.89354744,17.1853652 C6.67162137,17.0936444 6.52700356,16.8770415 6.52736318,16.6369087 C6.5261576,16.4801874 6.58757156,16.3294706 6.69796812,16.2182248 C6.80836468,16.1069791 6.95860648,16.0444167 7.11533242,16.0444167 L7.11533242,16.0453212 Z M7.69787426,5.05662832 C7.69787425,3.73274357 6.62465361,2.65952295 5.30076887,2.65952295 L5.05834462,2.65952295 C3.73528611,2.66151551 2.66323182,3.7335698 2.66123925,5.05662832 L2.66123925,5.64007472 L1.76028932,5.64007472 L1.76028932,5.01863646 C1.76004907,4.15746521 2.10216541,3.3315227 2.71127511,2.72275234 C3.32038481,2.11398197 4.14651784,1.77232595 5.00768882,1.77304623 L4.73631841,1.77304623 L4.73631841,0.588966626 L4.76526458,0.588966626 C4.7484892,0.542113881 4.73873496,0.493037842 4.73631841,0.44333117 C4.73628525,0.284955254 4.82075874,0.138595683 4.95791079,0.0593981497 C5.09506283,-0.0197993832 5.26405069,-0.0197993832 5.40120273,0.0593981497 C5.53835477,0.138595683 5.62282827,0.284955254 5.62279511,0.44333117 C5.62279511,0.493986973 5.61374942,0.543738217 5.5947535,0.590775764 L5.62279511,0.590775764 L5.62279511,1.77575994 L5.34328358,1.77575994 C7.1340678,1.77725803 8.58485096,3.22966082 8.58435109,5.0204456 L8.58435109,5.64188386 L7.69787426,5.64188386 L7.69787426,5.05843746 L7.69787426,5.05662832 Z" id="形状"></path>
        </g>
    </g>
</svg>