<?xml version="1.0" encoding="UTF-8"?>
<svg width="20px" height="20px" viewBox="0 0 20 20" version="1.1" xmlns="http://www.w3.org/2000/svg" xmlns:xlink="http://www.w3.org/1999/xlink">
    <!-- Generator: Sketch 55.2 (78181) - https://sketchapp.com -->
    <title>工程云盘</title>
    <desc>Created with Sketch.</desc>
    <g id="组件" stroke="none" stroke-width="1" fill-rule="evenodd">
        <g id="形状-3" transform="translate(2.000000, 4.000000)" fill-rule="nonzero">
            <path d="M12.4959259,12 L3.95883493,12 C1.77599399,12 1.72481959e-05,10.1692009 1.72481959e-05,7.91795267 C-0.00587404695,5.84950411 1.49807216,4.10753262 3.4912704,3.87416891 C4.14036725,1.57084009 6.19131794,-0.00998017181 8.51747996,4.74325287e-05 C10.4244098,4.74325287e-05 12.1514736,1.0489672 13.0818004,2.75372165 C15.2982571,3.05307779 16.9999999,5.02612735 16.9999999,7.35525316 C17.0004364,9.91666133 14.9799989,12 12.4959259,12 Z M8.51747996,0.928774586 C6.48712091,0.920223821 4.72529403,2.37150405 4.28495137,4.41526076 C4.23962054,4.62119722 4.06529183,4.76969933 3.86060708,4.77673892 C2.1999017,4.83165839 0.899801625,6.21139759 0.899801625,7.91795267 C0.901245913,9.65914114 2.26978063,11.0702816 3.95839836,11.0717709 L12.4959259,11.0717709 C14.4836208,11.0717709 16.1002328,9.40482986 16.1002328,7.35525316 C16.1002328,5.42226781 14.6355466,3.79629129 12.7644153,3.65404085 C12.6068348,3.64176056 12.4670139,3.54524609 12.3959517,3.39970069 C11.6520396,1.87546025 10.1659614,0.928324423 8.51747996,0.928324423 L8.51747996,0.928774586 Z M10.8775676,7.29538193 C10.7623136,7.29538193 10.6470596,7.25036597 10.5597459,7.15898358 L8.50001723,5.0355807 L6.44116165,7.15898358 C6.26527194,7.34047347 5.98000064,7.34057424 5.80399038,7.15920865 C5.62798011,6.97784307 5.62788239,6.68369059 5.8037721,6.5022007 L8.18132245,4.05063147 C8.34983778,3.87686986 8.64888698,3.87686986 8.81827543,4.05063147 L11.1958258,6.5022007 C11.3247206,6.63501152 11.36334,6.83480453 11.2936769,7.00842289 C11.2240137,7.18204126 11.059786,7.29529669 10.8775676,7.29538193 L10.8775676,7.29538193 Z M8.50001723,9.57003843 C8.25117336,9.57003843 8.04991543,9.3620647 8.04991543,9.10592388 L8.04991543,4.37879783 C8.06052734,4.13041821 8.25890316,3.93467954 8.50001723,3.93467954 C8.7411313,3.93467954 8.93950711,4.13041821 8.95011903,4.37879783 L8.95011903,9.10547372 C8.95011903,9.3620647 8.74842453,9.57003843 8.50001723,9.57003843 Z" id="形状"></path>
        </g>
    </g>
</svg>