<?xml version="1.0" encoding="UTF-8"?>
<svg width="20px" height="20px" viewBox="0 0 20 20" version="1.1" xmlns="http://www.w3.org/2000/svg" xmlns:xlink="http://www.w3.org/1999/xlink">
    <!-- Generator: Sketch 55.2 (78181) - https://sketchapp.com -->
    <title>分类编码管理</title>
    <desc>Created with Sketch.</desc>
    <g id="组件" stroke="none" stroke-width="1" fill-rule="evenodd">
        <g id="编组-5" transform="translate(2.000000, 2.000000)" fill-rule="nonzero">
            <path d="M13.06875,0.540540541 C13.06875,0.864864865 13.28125,1.08108108 13.6,1.08108108 L14.76875,1.08108108 C15.40625,1.08108108 15.9375,1.62162162 15.9375,2.16216216 L15.9375,3.24324324 C15.9375,3.56756757 16.15,3.78378378 16.46875,3.78378378 C16.7875,3.78378378 17,3.56756757 17,3.24324324 L17,2.16216216 C17,0.972972973 15.9375,2.84217094e-14 14.76875,2.84217094e-14 L13.6,2.84217094e-14 C13.28125,2.84217094e-14 13.06875,0.216216216 13.06875,0.540540541 Z M3.93125,0.540540541 C3.93125,0.864864865 3.71875,1.08108108 3.4,1.08108108 L2.23125,1.08108108 C1.59375,1.08108108 1.0625,1.62162162 1.0625,2.16216216 L1.0625,3.24324324 C1.0625,3.56756757 0.85,3.78378378 0.53125,3.78378378 C0.2125,3.78378378 0,3.56756757 0,3.24324324 L0,2.16216216 C0,0.972972973 1.0625,5.68434189e-14 2.23125,5.68434189e-14 L3.4,5.68434189e-14 C3.71875,5.68434189e-14 3.93125,0.216216216 3.93125,0.540540541 Z M3.93125,15.4594595 C3.93125,15.1351351 3.71875,14.9189189 3.4,14.9189189 L2.23125,14.9189189 C1.59375,14.9189189 1.0625,14.3783784 1.0625,13.8378378 L1.0625,12.7567568 C1.0625,12.4324324 0.85,12.2162162 0.53125,12.2162162 C0.2125,12.2162162 0,12.4324324 0,12.7567568 L0,13.8378378 C0,15.027027 1.0625,16 2.23125,16 L3.4,16 C3.71875,16 3.93125,15.7837838 3.93125,15.4594595 Z M16.46875,12.2162162 C16.15,12.2162162 15.9375,12.4324324 15.9375,12.7567568 L15.9375,13.8378378 C15.9375,14.4864865 15.40625,14.9189189 14.76875,14.9189189 L13.6,14.9189189 C13.28125,14.9189189 13.06875,15.1351351 13.06875,15.4594595 C13.06875,15.7837838 13.28125,16 13.6,16 L14.76875,16 C16.04375,16 17,15.027027 17,13.8378378 L17,12.7567568 C17,12.4324324 16.7875,12.2162162 16.46875,12.2162162 Z M16.3625,8.64864865 L0.6375,8.64864865 C0.2125,8.64864865 0,8.43243243 0,8 C0,7.67567568 0.2125,7.35135135 0.6375,7.35135135 L16.3625,7.35135135 C16.7875,7.35135135 17,7.67567568 17,8 C17,8.43243243 16.7875,8.64864865 16.3625,8.64864865 Z" id="形状"></path>
            <path d="M6.6,6.28571429 L3.4,6.28571429 C3.2,6.28571429 3,6.07142857 3,5.85714286 L3,2.42857143 C3,2.21428571 3.2,2 3.4,2 L6.6,2 C6.8,2 7,2.21428571 7,2.42857143 L7,5.85714286 C6.9,6.17857143 6.8,6.28571429 6.6,6.28571429 Z M3.9,5.32142857 L6,5.32142857 L6,3.07142857 L3.9,3.07142857 L3.9,5.32142857 Z M12.6,6.28571429 L9.4,6.28571429 C9.2,6.28571429 9,6.07142857 9,5.85714286 L9,2.42857143 C9,2.21428571 9.2,2 9.4,2 L12.6,2 C12.8,2 13,2.21428571 13,2.42857143 L13,5.85714286 C12.9,6.17857143 12.8,6.28571429 12.6,6.28571429 Z M9.9,5.32142857 L12,5.32142857 L12,3.07142857 L9.9,3.07142857 L9.9,5.32142857 Z M6.6,14 L3.4,14 C3.2,14 3,13.7857143 3,13.5714286 L3,10.1428571 C3,9.92857143 3.2,9.71428571 3.4,9.71428571 L6.6,9.71428571 C6.8,9.71428571 7,9.92857143 7,10.1428571 L7,13.5714286 C6.9,13.8928571 6.8,14 6.6,14 Z M3.9,13.0357143 L6,13.0357143 L6,10.7857143 L3.9,10.7857143 L3.9,13.0357143 Z M12.6,14 L9.4,14 C9.2,14 9,13.7857143 9,13.5714286 L9,10.1428571 C9,9.92857143 9.2,9.71428571 9.4,9.71428571 L12.6,9.71428571 C12.8,9.71428571 13,9.92857143 13,10.1428571 L13,13.5714286 C12.9,13.8928571 12.8,14 12.6,14 Z M9.9,13.0357143 L12,13.0357143 L12,10.7857143 L9.9,10.7857143 L9.9,13.0357143 Z" id="形状"></path>
        </g>
    </g>
</svg>