<?xml version="1.0" encoding="UTF-8"?>
<svg width="20px" height="20px" viewBox="0 0 20 20" version="1.1" xmlns="http://www.w3.org/2000/svg" xmlns:xlink="http://www.w3.org/1999/xlink">
    <!-- Generator: Sketch 55.2 (78181) - https://sketchapp.com -->
    <title>仪表盘</title>
    <desc>Created with Sketch.</desc>
    <g id="组件" stroke="none" stroke-width="1" fill-rule="evenodd">
        <path d="M11.125,14.0362706 C11.125,14.6520798 10.61875,15.1559237 10,15.1559237 C9.38125,15.1559237 8.875,14.6520798 8.875,14.0362706 C8.875,13.6331955 9.11125,13.2861031 9.4375,13.0845655 L9.4375,8.15809195 C9.4375,7.84458909 9.685,7.59826541 10,7.59826541 C10.315,7.59826541 10.5625,7.84458909 10.5625,8.15809195 L10.5625,13.0845655 C10.88875,13.2861031 11.125,13.6331955 11.125,14.0362706 Z M10,2 C5.03875,2 1,6.01955457 1,10.9572247 C1,13.6443921 2.1925,16.1636115 4.285,17.8766807 C4.38625,17.966253 4.52125,18 4.645,18 C4.64899023,18 4.65368359,18 4.65837695,18 C4.96530859,18 5.21412695,17.7523642 5.21412695,17.4468914 C5.21412695,17.2723829 5.13293359,17.1167512 5.00608984,17.0153876 C3.24117578,15.5710351 2.125,13.3990131 2.125,10.967529 L2.125,10.9566648 C2.125,6.63536376 5.6575,3.11965308 10,3.11965308 C14.3425,3.11965308 17.875,6.63536376 17.875,10.9572247 C17.875,13.2413169 16.885,15.4022474 15.14125,16.891386 C14.905,17.0929236 14.8825,17.4512125 15.085,17.6863397 C15.2875,17.9214668 15.6475,17.9438599 15.88375,17.7423223 C17.7970586,16.0901867 19,13.6665402 19,10.9632778 L19,10.9569098 C19,6.01957206 14.96125,2 10,2 L10,2 Z M15.5125,8.71795348 C15.6025,8.71795348 15.6925,8.69552543 15.77125,8.65073931 C16.0525,8.50518441 16.15375,8.16928848 16.01875,7.90057174 C14.8776836,5.71016293 12.6167676,4.23930616 10.0106875,4.23930616 L9.99941992,4.23930616 C7.60375,4.23930616 5.35375,5.5269247 4.15,7.59828291 C3.9925,7.86699965 4.09375,8.20289557 4.36375,8.359647 C4.63375,8.51639843 4.97125,8.42682619 5.12875,8.15810945 C6.13,6.4338437 7.9975,5.35897674 10,5.35897674 L10.0207598,5.35894175 C12.1851543,5.35894175 14.0623223,6.58291501 14.9915723,8.37334526 C15.1075,8.60598818 15.31,8.71795348 15.5125,8.71795348 L15.5125,8.71795348 Z" id="形状" fill-rule="nonzero"></path>
    </g>
</svg>