<?xml version="1.0" encoding="UTF-8"?>
<svg width="20px" height="20px" viewBox="0 0 20 20" version="1.1" xmlns="http://www.w3.org/2000/svg" xmlns:xlink="http://www.w3.org/1999/xlink">
    <!-- Generator: Sketch 55.2 (78181) - https://sketchapp.com -->
    <title>门窗设计</title>
    <desc>Created with Sketch.</desc>
    <g id="组件" stroke="none" stroke-width="1" fill-rule="evenodd">
        <g id="编组-6" transform="translate(3.000000, 1.000000)" fill-rule="nonzero">
            <g id="编组-2">
                <path d="M12.5,1.28571428 L12.5,16.7142857 L1.25,16.7142857 L1.25,1.28571428 L12.5,1.28571428 L12.5,1.28571428 Z M13.125,2.84217094e-14 L0.62499999,2.84217094e-14 C0.279822024,2.84217094e-14 6.47482068e-13,0.287816957 6.47482068e-13,0.64285715 L6.47482068e-13,17.3571428 C6.47482068e-13,17.712183 0.279822024,18 0.62499999,18 L13.125,18 C13.470178,18 13.75,17.712183 13.75,17.3571428 L13.75,0.64285715 C13.75,0.287816957 13.470178,2.84217094e-14 13.125,2.84217094e-14 Z" id="形状"></path>
                <path d="M7.48046874,1.10491072 L6.23046874,1.10491072 L6.23046874,16.6941964 L7.48046874,16.6941964 L7.48046874,1.10491072 Z M3.30078125,7.875 L2.5,7.875 L2.5,10.3459822 L3.30078125,10.3459822 L3.30078125,7.875 Z M11.25,7.875 L10.4492187,7.875 L10.4492187,10.3459822 L11.25,10.3459822 L11.25,7.875 Z" id="形状"></path>
            </g>
        </g>
    </g>
</svg>