<?xml version="1.0" encoding="UTF-8"?>
<svg width="20px" height="20px" viewBox="0 0 20 20" version="1.1" xmlns="http://www.w3.org/2000/svg" xmlns:xlink="http://www.w3.org/1999/xlink">
    <!-- Generator: Sketch 55.2 (78181) - https://sketchapp.com -->
    <title>构件模板管理</title>
    <desc>Created with Sketch.</desc>
    <g id="组件" stroke="none" stroke-width="1" fill-rule="evenodd">
        <g id="编组-3" transform="translate(2.000000, 2.000000)" ffill-rule="nonzero">
            <path d="M16,17 L15.0675991,17 C15.067599,15.3431458 13.8152487,14 12.2703963,14 L11.7435897,14 L12.1911422,14.7225 L11.4172494,15.2775 L10,13 L12.2703963,13 C13.2595487,13 14.208188,13.4214274 14.9076244,14.1715729 C15.6070607,14.9217184 16,15.939134 16,17 L16,17 Z" id="路径"></path>
            <path d="M16,2.84217094e-14 L7.84444445,2.84217094e-14 L0,6.52054794 L0,10.7123288 L2.22222223,10.7123288 L2.22222223,12.5753425 L0,12.5753425 L0,17 L8.15555556,17 L10.5,15.0484932 L9.94888889,14.3172603 L8.44444446,15.570137 L8.44444446,13.2739726 L15.1111111,7.71753424 L15.1111111,10.0136986 L13.32,11.5041096 L13.8733333,12.2353425 L16,10.4794521 L16,6.28767125 L14,6.28767125 L14,5.84753424 L15.8311111,4.32452055 L16,4.19178083 L16,2.84217094e-14 Z M8.44444446,9.28246576 L8.44444446,6.98630138 L15.1111111,1.42986302 L15.1111111,3.72602741 L8.44444446,9.28246576 Z M8.15555556,0.931506858 L14.28,0.931506858 L7.83555556,6.28767125 L1.71777778,6.28767125 L8.15555556,0.931506858 Z M0.888888897,13.5068493 L3.11111111,13.5068493 L3.11111111,9.78082192 L0.888888897,9.78082192 L0.888888897,7.21917808 L7.55555556,7.21917808 L7.55555556,9.78082192 L5.55555556,9.78082192 L5.55555556,13.5068493 L7.55555556,13.5068493 L7.55555556,16.0684931 L0.888888897,16.0684931 L0.888888897,13.5068493 Z M14.28,7.21917808 L7.83555556,12.5753425 L6.44444445,12.5753425 L6.44444445,10.7123288 L8.44444445,10.7123288 L8.44444445,10.4794521 L13.1111111,6.5880822 L13.1111111,7.21917808 L14.28,7.21917808 Z" id="形状"></path>
        </g>
    </g>
</svg>