<?xml version="1.0" encoding="UTF-8"?>
<svg width="20px" height="20px" viewBox="0 0 20 20" version="1.1" xmlns="http://www.w3.org/2000/svg" xmlns:xlink="http://www.w3.org/1999/xlink">
    <!-- Generator: Sketch 55.2 (78181) - https://sketchapp.com -->
    <title>属性词典管理</title>
    <desc>Created with Sketch.</desc>
    <g id="组件" stroke="none" stroke-width="1" fill-rule="evenodd">
        <g id="编组-4" transform="translate(2.000000, 2.000000)" fill-rule="nonzero">
            <path d="M15.2893401,12.8505864 L15.2893401,0.0081591025 C15.2418717,0.0081591025 15.186492,2.84217094e-14 15.1390236,2.84217094e-14 C11.618454,2.84217094e-14 5.96180846,2.84217094e-14 2.44123884,0.0081591025 C2.21180846,0.0081591025 1.96655529,0.0407955125 1.7450363,0.114227435 C0.851048962,0.39163692 0.289340102,1.20754717 0.289340102,2.19479857 L0.289340102,13.4951555 C0.313074279,14.2376339 0.574150228,15.0372259 1.15959327,15.5104539 C1.57098567,15.836818 2.04566922,16 2.57573251,16 L15.2576945,16 L15.2576945,15.9347272 L15.2735173,15.9347272 L15.2735173,14.7598164 C14.9570616,14.5721571 14.7355426,14.2131566 14.7355426,13.8052014 C14.7513654,13.3972463 14.9728844,13.0464049 15.2893401,12.8505864 Z M13.976049,14.9066803 L2.43332744,14.9066803 C1.83997301,14.9066803 1.36528947,14.408975 1.36528947,13.8052014 C1.36528947,13.2014278 1.84788441,12.7037226 2.43332744,12.7037226 L13.976049,12.7037226 C13.7940869,13.0300867 13.6754161,13.4054054 13.6754161,13.8052014 C13.6833274,14.2049975 13.7940869,14.5803162 13.976049,14.9066803 Z M14.2133907,11.5940847 L14.0235173,11.5940847 C11.0883907,11.5940847 6.00136542,11.5940847 3.06623884,11.5859255 C2.47288441,11.5859255 1.88744137,11.5859255 1.34946668,11.9449261 L1.34946668,11.7491076 C1.34946668,8.29780724 1.35737808,5.64609893 1.34155529,2.20295767 C1.34155529,1.60734319 1.7450363,1.06884243 2.46497301,1.07690999 C5.61370719,1.08516063 10.9064287,1.07690999 14.0551629,1.07690999 L14.2133907,1.07690999 L14.2133907,11.5940847 Z" id="形状"></path>
            <path d="M3.2893401,4 L12.2893401,4 L12.2893401,5.11019737 L3.2893401,5.11019737 L3.2893401,4 L3.2893401,4 Z M3.2893401,7.88980263 L12.2893401,7.88980263 L12.2893401,9 L3.2893401,9 L3.2893401,7.88980263 Z" id="形状"></path>
        </g>
    </g>
</svg>