<?xml version="1.0" standalone="no"?><!DOCTYPE svg PUBLIC "-//W3C//DTD SVG 1.1//EN" "http://www.w3.org/Graphics/SVG/1.1/DTD/svg11.dtd"><svg t="1565169159007" class="icon" viewBox="0 0 1024 1024" version="1.1" xmlns="http://www.w3.org/2000/svg" p-id="1120" xmlns:xlink="http://www.w3.org/1999/xlink" width="200" height="200"><defs><style type="text/css"></style></defs><path d="M510.9 133.7c51.3 0 101 10 147.8 29.8 45.2 19.1 85.8 46.5 120.7 81.4 34.9 34.9 62.3 75.5 81.4 120.7 19.8 46.8 29.8 96.5 29.8 147.8s-10 101-29.8 147.8c-19.1 45.2-46.5 85.8-81.4 120.7-34.9 34.9-75.5 62.3-120.7 81.4-46.8 19.8-96.5 29.8-147.8 29.8s-101-10-147.8-29.8c-45.2-19.1-85.8-46.5-120.7-81.4-34.9-34.9-62.3-75.5-81.4-120.7-19.8-46.8-29.8-96.5-29.8-147.8s10-101 29.8-147.8c19.1-45.2 46.5-85.8 81.4-120.7 34.9-34.9 75.5-62.3 120.7-81.4 46.8-19.8 96.5-29.8 147.8-29.8m0-61.7C267.1 72 69.4 269.6 69.4 513.4S267 954.8 510.8 954.8s441.4-197.6 441.4-441.4S754.7 72 510.9 72z" p-id="1121"></path><path d="M567.3 763.1c-11 0-21.2-5.9-26.8-15.5l-90.8-158.5-160.4-64.7c-11.3-4.6-18.9-15.4-19.3-27.6-0.4-12.2 6.5-23.5 17.5-28.8l420.1-201.2c11.2-5.4 24.6-3.5 33.9 4.9 9.3 8.3 12.6 21.4 8.5 33.2L596.4 742.5c-4 11.4-14.3 19.4-26.3 20.5-1 0.1-1.9 0.1-2.8 0.1z m-190-269.7l105.4 42.5c6.4 2.6 11.8 7.3 15.2 13.3l62.6 109.3 106.7-303.8-289.9 138.7z" p-id="1122"></path></svg>